<svg width="20" height="20" viewBox="0 0 20 20" fill="none" xmlns="http://www.w3.org/2000/svg">
<g id="Group">
<path id="Vector" d="M8.85034 2.43835C8.99546 2.59943 9.1728 2.72823 9.37088 2.81639C9.56896 2.90455 9.78335 2.95011 10.0002 2.95011C10.217 2.95011 10.4314 2.90455 10.6294 2.81639C10.8275 2.72823 11.0049 2.59943 11.15 2.43835L11.8981 1.6175C12.1125 1.38022 12.3951 1.2151 12.707 1.14481C13.019 1.07453 13.3451 1.10251 13.6406 1.22494C13.936 1.34736 14.1863 1.55821 14.3571 1.82857C14.528 2.09892 14.6109 2.41551 14.5947 2.7349L14.5385 3.84201C14.5277 4.05798 14.5622 4.27384 14.6398 4.47566C14.7174 4.67749 14.8365 4.86082 14.9893 5.01384C15.1421 5.16686 15.3252 5.28618 15.527 5.36411C15.7287 5.44204 15.9445 5.47685 16.1605 5.46631L17.2676 5.41016C17.5868 5.39443 17.903 5.47779 18.1729 5.64882C18.4429 5.81985 18.6534 6.07018 18.7755 6.3655C18.8976 6.66082 18.9254 6.98668 18.855 7.29841C18.7847 7.61015 18.6197 7.8925 18.3826 8.10678L17.5586 8.85013C17.3977 8.99545 17.2691 9.1729 17.1811 9.37103C17.093 9.56915 17.0476 9.78354 17.0476 10.0003C17.0476 10.2171 17.093 10.4315 17.1811 10.6297C17.2691 10.8278 17.3977 11.0052 17.5586 11.1506L18.3826 11.8939C18.6199 12.1083 18.785 12.3909 18.8553 12.7029C18.9256 13.0149 18.8976 13.3409 18.7752 13.6364C18.6527 13.9318 18.4419 14.1821 18.1715 14.353C17.9012 14.5238 17.5846 14.6068 17.2652 14.5905L16.1581 14.5344C15.9416 14.5232 15.7253 14.5577 15.523 14.6354C15.3207 14.7132 15.1369 14.8326 14.9837 14.9858C14.8304 15.1391 14.711 15.3228 14.6333 15.5251C14.5555 15.7274 14.5211 15.9438 14.5322 16.1602L14.5884 17.2674C14.6025 17.5851 14.5185 17.8996 14.3477 18.168C14.177 18.4363 13.9277 18.6456 13.6339 18.7674C13.34 18.8892 13.0158 18.9176 12.7052 18.8487C12.3947 18.7798 12.1129 18.617 11.8981 18.3824L11.1539 17.5592C11.0087 17.3983 10.8313 17.2697 10.6332 17.1817C10.4352 17.0937 10.2208 17.0482 10.0041 17.0482C9.78737 17.0482 9.57305 17.0937 9.37499 17.1817C9.17693 17.2697 8.99954 17.3983 8.85429 17.5592L8.10699 18.3824C7.89254 18.6181 7.6106 18.782 7.29963 18.8516C6.98865 18.9212 6.66376 18.8933 6.36925 18.7715C6.07474 18.6498 5.82495 18.4402 5.65392 18.1713C5.48289 17.9024 5.39895 17.5873 5.41354 17.2689L5.47048 16.1618C5.48161 15.9454 5.44718 15.729 5.36941 15.5267C5.29164 15.3244 5.17227 15.1407 5.01901 14.9874C4.86576 14.8342 4.68203 14.7148 4.47973 14.637C4.27743 14.5592 4.06105 14.5248 3.8446 14.536L2.73749 14.5921C2.41823 14.6088 2.10164 14.5262 1.83118 14.3557C1.56073 14.1853 1.34967 13.9353 1.22697 13.6401C1.10428 13.3449 1.07597 13.0189 1.14593 12.707C1.21589 12.395 1.3807 12.1124 1.61772 11.8979L2.44094 11.1545C2.60182 11.0092 2.73043 10.8317 2.81846 10.6336C2.90648 10.4355 2.95196 10.2211 2.95196 10.0043C2.95196 9.78749 2.90648 9.57311 2.81846 9.37498C2.73043 9.17686 2.60182 8.9994 2.44094 8.85408L1.61772 8.10678C1.38147 7.89247 1.21717 7.61043 1.14727 7.29922C1.07738 6.988 1.10531 6.66279 1.22724 6.36805C1.34917 6.07331 1.55915 5.82341 1.82848 5.65252C2.09781 5.48164 2.41335 5.3981 2.73195 5.41333L3.83906 5.46947C4.05592 5.48087 4.27276 5.44653 4.47548 5.36868C4.6782 5.29082 4.86228 5.1712 5.01576 5.01757C5.16924 4.86394 5.28869 4.67974 5.36635 4.47694C5.444 4.27415 5.47814 4.05728 5.46652 3.84043L5.41354 2.73253C5.3986 2.41404 5.48229 2.09871 5.65319 1.82955C5.82408 1.56039 6.07387 1.35051 6.36846 1.22856C6.66304 1.10661 6.98808 1.07852 7.29922 1.14813C7.61037 1.21774 7.89245 1.38165 8.10699 1.6175L8.85034 2.43835Z" stroke="#7E7E7E" stroke-width="1.33333" stroke-linecap="round" stroke-linejoin="round"/>
<path id="Vector_2" d="M10.0001 13.5595C11.9654 13.5595 13.5587 11.9663 13.5587 10.001C13.5587 8.03561 11.9654 6.44238 10.0001 6.44238C8.03474 6.44238 6.44151 8.03561 6.44151 10.001C6.44151 11.9663 8.03474 13.5595 10.0001 13.5595Z" stroke="#7E7E7E" stroke-width="1.33333" stroke-linecap="round" stroke-linejoin="round"/>
</g>
</svg>
